:SAMPLES-PER-SECOND 30
:FRAME-RANGE 1-1700
:FULLY-SPECIFIED
:DEGREES
1010
root  -78.0013 38.0685 -74.145 0.0847168 -47.7517 6.02689
RightUpLeg  -8.21762 -0.238865 -11.1421
RightLeg  64.4035 0.0298197 -0.534075
RightFoot  -3.66613 -0.634304 9.06437
RightToes  6.35937e-011 1.2921e-014 -6.02303e-014
Spine  0.523856 1.58618 5.19018
Spine1  7.92038 2.27551 -4.09436
HEad  19.7562 47.8264 -7.09006
LeftShoulder1  0.861757 -0.0834759 -19.1494
LeftArm  -7.12254 10.7448 -55.2633
LeftForeArm  40.1492 7.49971 -11.4375
LeftHand  -0.0278961 5.15846 -0.222283
RightShoulder  1.66168 2.10224 24.6271
RightArm  -23.235 7.76266 48.8654
RightForeArm  71.9647 -4.86043 4.06147
RightHand  0.209568 -7.08462 -15.6047
LeftUpLeg  -24.1732 -2.65083 -10.9201
LeftLeg  22.4712 12.8492 6.1014
LeftFoot  -2.60354 -0.594219 7.96995
LeftToes  -1.9349e-011 5.45182e-011 1.33515e-010
1011
root  -78.9323 38.1877 -73.2242 -0.72879 -45.3606 6.42896
RightUpLeg  -11.4441 0.703388 -10.9926
RightLeg  68.0417 0.400689 0.378002
RightFoot  -5.66242 -0.440937 8.09821
RightToes  6.35937e-011 1.2921e-014 -6.02303e-014
Spine  0.302813 1.36611 4.53474
Spine1  8.07031 1.99375 -4.1869
HEad  21.7444 47.1036 -6.06943
LeftShoulder1  0.937428 -0.392376 -19.0672
LeftArm  -6.92249 9.33717 -55.5601
LeftForeArm  39.5443 6.79752 -11.3927
LeftHand  -0.0284253 5.17178 0.290135
RightShoulder  1.57264 1.74175 25.0669
RightArm  -24.5876 5.83282 49.2012
RightForeArm  73.7351 -5.13271 3.37217
RightHand  0.267964 -7.54727 -15.4611
LeftUpLeg  -21.2079 -3.99957 -11.7078
LeftLeg  22.6251 12.329 5.91594
LeftFoot  -4.55768 -0.428751 7.68623
LeftToes  -1.9349e-011 5.45182e-011 1.33515e-010
1012
root  -79.8545 38.329 -72.3267 -0.911621 -43.2519 6.1405
RightUpLeg  -14.9345 1.50687 -10.2697
RightLeg  69.0967 0.162604 -0.293026
RightFoot  -6.56666 -0.357156 7.48276
RightToes  6.35937e-011 1.2921e-014 -6.02303e-014
Spine  0.586391 1.14469 4.10494
Spine1  7.41086 1.63176 -3.92643
HEad  23.6512 46.1685 -5.09671
LeftShoulder1  0.901333 -0.208765 -19.3863
LeftArm  -6.76168 7.90552 -55.6919
LeftForeArm  39.398 5.78723 -11.3192
LeftHand  -0.0296735 4.95304 0.974935
RightShoulder  1.51405 1.52194 25.2733
RightArm  -25.8614 3.54707 49.3506
RightForeArm  74.0974 -5.03065 2.84929
RightHand  0.284595 -7.70745 -15.2579
LeftUpLeg  -18.2548 -5.37147 -11.8568
LeftLeg  22.4278 11.9748 5.71369
LeftFoot  -6.36373 -0.286061 7.45363
LeftToes  -1.9349e-011 5.45182e-011 1.33515e-010
1013
root  -80.7628 38.4085 -71.4864 -1.16129 -41.7347 6.12271
RightUpLeg  -18.6401 3.16333 -9.81457
RightLeg  67.9708 -0.284199 -1.49377
RightFoot  -8.51842 -0.231644 7.03945
RightToes  6.35937e-011 1.2921e-014 -6.02303e-014
Spine  1.11908 1.04472 3.23915
Spine1  6.59715 1.41538 -3.85332
HEad  24.5263 45.7733 -4.70746
LeftShoulder1  0.922396 -0.280631 -19.4656
LeftArm  -6.28584 7.06511 -55.9265
LeftForeArm  38.9858 3.87703 -11.4306
LeftHand  -0.0316828 4.79425 1.34192
RightShoulder  1.52223 1.5214 25.4554
RightArm  -27.0253 1.45539 49.3834
RightForeArm  73.6844 -4.97057 2.39079
RightHand  0.255672 -7.52821 -14.9728
LeftUpLeg  -15.6607 -6.09454 -12.104
LeftLeg  22.3751 11.5746 5.5545
LeftFoot  -8.16604 -0.146705 7.05969
LeftToes  -1.9349e-011 5.45182e-011 1.33515e-010
1014
root  -81.6748 38.5173 -70.6187 -0.844696 -40.4784 5.43039
RightUpLeg  -21.7955 3.951 -9.35289
RightLeg  63.6839 -0.697713 -2.11443
RightFoot  -10.2435 -0.132477 6.55116
RightToes  6.35937e-011 1.2921e-014 -6.02303e-014
Spine  1.21192 0.819265 3.04214
Spine1  6.22165 1.17982 -3.78378
HEad  24.2523 45.4752 -4.82541
LeftShoulder1  0.947295 -0.355693 -19.6301
LeftArm  -5.39006 5.88043 -55.9736
LeftForeArm  38.5559 2.08398 -11.6553
LeftHand  -0.0336938 4.76749 1.76241
RightShoulder  1.38557 1.03829 25.8118
RightArm  -27.7184 0.452826 49.5662
RightForeArm  73.5419 -4.92642 2.0939
RightHand  0.265122 -7.63036 -14.8051
LeftUpLeg  -12.8613 -5.80248 -11.7723
LeftLeg  21.6294 10.4726 5.06438
LeftFoot  -9.92101 -0.0275996 7.03927
LeftToes  -1.9349e-011 5.45182e-011 1.33515e-010
1015
root  -82.5676 38.646 -69.7377 -0.335419 -39.1292 4.56332
RightUpLeg  -24.0597 3.8626 -9.04495
RightLeg  56.3526 -1.15663 -2.2981
RightFoot  -10.964 -0.0941978 5.97709
RightToes  6.35937e-011 1.2921e-014 -6.02303e-014
Spine  1.13598 0.372951 2.82557
Spine1  6.04215 0.707216 -3.31088
HEad  23.4158 44.9768 -5.15359
LeftShoulder1  0.951942 -0.405593 -19.391
LeftArm  -4.78385 4.6251 -56.5141
LeftForeArm  38.9473 0.627364 -11.7634
LeftHand  -0.0348357 4.67528 1.8053
RightShoulder  1.39499 1.07756 25.7393
RightArm  -27.8735 -0.59564 49.7491
RightForeArm  73.1175 -4.94567 2.1064
RightHand  0.27948 -7.78626 -14.5723
LeftUpLeg  -9.90276 -5.05732 -11.2131
LeftLeg  20.2604 8.70101 4.36064
LeftFoot  -11.3602 0.0695633 6.97816
LeftToes  -1.9349e-011 5.45182e-011 1.33515e-010
1016
root  -83.4584 38.7247 -68.8511 0.216614 -37.7928 3.89471
RightUpLeg  -25.3982 4.47921 -9.00316
RightLeg  46.3727 -2.15983 -2.73866
RightFoot  -10.9021 -0.099507 6.61932
RightToes  6.35937e-011 1.2921e-014 -6.02303e-014
Spine  0.922972 -0.120825 2.34384
Spine1  5.88688 0.175773 -2.69373
HEad  22.529 44.0554 -5.32585
LeftShoulder1  0.97429 -0.52274 -19.1752
LeftArm  -4.53834 3.37353 -57.0097
LeftForeArm  39.8791 -0.339029 -11.7345
LeftHand  -0.0387108 4.39229 1.92898
RightShoulder  1.26267 0.648153 25.8307
RightArm  -28.1179 -0.990243 49.8798
RightForeArm  73.345 -4.91771 1.99487
RightHand  0.278306 -7.78273 -14.5392
LeftUpLeg  -7.13689 -4.02602 -10.6626
LeftLeg  18.7987 6.50253 3.72009
LeftFoot  -12.7707 0.160015 6.65759
LeftToes  -1.9349e-011 5.45182e-011 1.33515e-010
1017
root  -84.3255 38.7881 -67.9424 1.06537 -36.6275 3.27524
RightUpLeg  -25.6218 4.86179 -9.34252
RightLeg  33.1582 -2.32575 -1.87422
RightFoot  -9.68419 -0.15549 6.19246
RightToes  6.35937e-011 1.2921e-014 -6.02303e-014
Spine  0.507809 -0.503533 2.39809
Spine1  5.46343 -0.120009 -2.414
HEad  22.0069 43.0463 -5.68049
LeftShoulder1  1.02326 -0.70869 -19.2204
LeftArm  -3.63486 1.81932 -57.0248
LeftForeArm  39.8245 -0.572487 -11.9272
LeftHand  -0.0456435 4.36135 1.91661
RightShoulder  1.28103 0.68116 26.0385
RightArm  -27.9107 -2.18447 49.3721
RightForeArm  72.2706 -4.99698 2.2094
RightHand  0.287176 -7.82108 -14.7225
LeftUpLeg  -4.4766 -2.71907 -9.99718
LeftLeg  16.7456 4.33991 3.16842
LeftFoot  -13.7196 0.231414 7.16013
LeftToes  -1.9349e-011 5.45182e-011 1.33515e-010
1018
root  -85.196 38.808 -66.9817 1.85385 -35.6136 2.91443
RightUpLeg  -24.9713 6.21108 -10.4763
RightLeg  19.0626 -0.605669 -0.436913
RightFoot  -9.01877 -0.231761 8.38912
RightToes  6.35937e-011 1.2921e-014 -6.02303e-014
Spine  -0.267486 -0.708538 2.80102
Spine1  5.49186 -0.17675 -2.51178
HEad  21.3017 41.7037 -5.98979
LeftShoulder1  1.12922 -1.16202 -18.9913
LeftArm  -3.3973 0.617122 -57.2038
LeftForeArm  39.6692 -0.59922 -11.9452
LeftHand  -0.0435189 4.10916 2.08429
RightShoulder  1.18866 0.359526 26.332
RightArm  -27.7605 -3.30482 48.7084
RightForeArm  71.0879 -4.31937 2.49478
RightHand  0.204892 -7.15343 -14.7789
LeftUpLeg  -1.76771 -1.40665 -9.35333
LeftLeg  14.4499 2.545 2.67928
LeftFoot  -14.6807 0.319394 7.9112
LeftToes  -1.9349e-011 5.45182e-011 1.33515e-010
1019
root  -86.1239 38.6556 -65.9666 2.00433 -34.3907 2.98849
RightUpLeg  -23.7872 2.51164 -9.75423
RightLeg  8.12809 7.9697 -0.601266
RightFoot  -10.4776 -0.139917 9.0814
RightToes  6.35937e-011 1.2921e-014 -6.02303e-014
Spine  -1.5796 -0.977556 2.88953
Spine1  6.32601 -0.385254 -2.60568
HEad  20.9859 40.2258 -6.23769
LeftShoulder1  1.25763 -1.71234 -18.7645
LeftArm  -3.44265 -0.00591718 -57.2284
LeftForeArm  39.0244 -0.649319 -11.9074
LeftHand  -0.037475 4.38829 1.76266
RightShoulder  1.15718 0.282288 26.1386
RightArm  -28.1458 -4.23538 48.5224
RightForeArm  70.7566 -4.2471 2.36934
RightHand  0.18553 -6.96928 -15.0227
LeftUpLeg  0.891669 -0.714986 -8.99597
LeftLeg  13.5069 0.778986 2.31455
LeftFoot  -16.4018 0.429419 7.4723
LeftToes  -1.9349e-011 5.45182e-011 1.33515e-010
1020
root  -87.0159 38.3991 -64.9782 1.45413 -32.7722 3.19974
RightUpLeg  -23.4753 -2.11185 -8.6825
RightLeg  4.92288 14.2089 -0.743584
RightFoot  -12.5172 -0.00351253 7.93835
RightToes  6.35937e-011 1.2921e-014 -6.02303e-014
Spine  -1.69726 -1.2177 2.96087
Spine1  6.44899 -0.752154 -2.22312
HEad  22.3039 38.3981 -6.27411
LeftShoulder1  1.25181 -1.62091 -19.1381
LeftArm  -3.13105 -0.761069 -56.8384
LeftForeArm  38.7256 -0.0951546 -11.9958
LeftHand  -0.0419991 4.16084 1.99554
RightShoulder  1.05478 -0.0223442 25.9817
RightArm  -28.4711 -4.73558 47.9977
RightForeArm  71.3678 -5.00732 2.0577
RightHand  0.177968 -6.89089 -15.1907
LeftUpLeg  3.24035 -1.20034 -8.92787
LeftLeg  14.5033 0.0517794 2.38156
LeftFoot  -18.6222 0.560115 7.03284
LeftToes  -1.9349e-011 5.45182e-011 1.33515e-010
